# xmcd
#
# Track frame offsets: 
#        150
#        11995
#        31373
#        47355
#        66245
#        81760
#        100149
#        113235
#        128545
#        139162
#        151963
#        165222
#        178162
#        188808
#        208432
#
# Disc length: 2931 seconds
#
# Revision: 4
# Processed by: cddbd v1.5.1PL0 Copyright (c) Steve Scherf et al.
# Submitted via: ExactAudioCopy v0.95a5
#
DISCID=c80b710f
DTITLE=Various Artist - Roadhouse Blues
DYEAR=1900
DGENRE=Blues
TTITLE0=Lonnie Brooks - One More Shot
TTITLE1=Mitch Woods - House of Blue Lights
TTITLE2=Koko Taylor - Beer Bottle Boogie
TTITLE3=Muddy Waters - Got My Mojo Working
TTITLE4=Party Boys - We Got A Party
TTITLE5=John Primer - Lawhorn Special
TTITLE6=Amos Milbum - One Scotch, One Bourbon, One Beer
TTITLE7=Roomful Of Blues - Mr. Dollar
TTITLE8=J.B. Hutto - Hip Shakin'
TTITLE9=Little Walter - Boom Boom
TTITLE10=B.B. King - Jumpin' With B.B.
TTITLE11=Buddy Guy - Money
TTITLE12=Otis Spam - Spann's Stomp
TTITLE13=Son Seals - Before The Bullets Fly
TTITLE14=Lloyd Genn - Blues Hangover
EXTD=
EXTT0=Lonnie Brooks\n
EXTT1=Mitch Woods\n
EXTT2=Koko Taylor
EXTT3=Muddy Waters
EXTT4=Party Boys
EXTT5=John Primer\n
EXTT6=Amos Milburn
EXTT7=Roomful of Blues
EXTT8=J.B. Hutto
EXTT9=Little Walter
EXTT10=B.B. King
EXTT11=Buddy Guy
EXTT12=Otis Spam
EXTT13=Son Seals
EXTT14=Lloyd Glenn
PLAYORDER=
